<svg width="168" height="94" viewBox="0 0 168 94" fill="none" xmlns="http://www.w3.org/2000/svg">
<rect width="168" height="94" fill="black"/>
<path d="M35.888 47.384C34.6933 47.384 33.616 47.1813 32.656 46.776C31.7173 46.3707 30.9067 45.7947 30.224 45.048C29.5627 44.28 29.0507 43.3733 28.688 42.328C28.3253 41.2613 28.144 40.0773 28.144 38.776C28.144 37.4533 28.3253 36.2587 28.688 35.192C29.072 34.1253 29.5947 33.2187 30.256 32.472C30.9173 31.704 31.7067 31.1173 32.624 30.712C33.5627 30.3067 34.5973 30.104 35.728 30.104C36.8373 30.104 37.84 30.3067 38.736 30.712C39.6533 31.1173 40.432 31.6827 41.072 32.408C41.712 33.112 42.2027 33.9547 42.544 34.936C42.8853 35.9173 43.056 36.9947 43.056 38.168V39.384H30.832V40.152C30.832 40.8773 30.9493 41.5493 31.184 42.168C31.4187 42.7867 31.7493 43.32 32.176 43.768C32.624 44.216 33.1573 44.568 33.776 44.824C34.416 45.0587 35.12 45.176 35.888 45.176C36.9973 45.176 37.9573 44.92 38.768 44.408C39.5787 43.896 40.1973 43.192 40.624 42.296L42.512 43.576C42.0213 44.6853 41.2 45.6027 40.048 46.328C38.9173 47.032 37.5307 47.384 35.888 47.384ZM35.728 32.216C35.024 32.216 34.3733 32.344 33.776 32.6C33.1787 32.856 32.656 33.208 32.208 33.656C31.7813 34.104 31.44 34.6373 31.184 35.256C30.9493 35.8533 30.832 36.5147 30.832 37.24V37.464H40.304V37.112C40.304 36.3867 40.1867 35.7253 39.952 35.128C39.7387 34.5307 39.4293 34.0187 39.024 33.592C38.64 33.144 38.16 32.8027 37.584 32.568C37.0293 32.3333 36.4107 32.216 35.728 32.216ZM55.5875 47C54.3288 47 53.4008 46.648 52.8035 45.944C52.2275 45.24 51.9395 44.3333 51.9395 43.224V32.664H46.4355V30.488H50.5315C51.0862 30.488 51.4702 30.3813 51.6835 30.168C51.9182 29.9333 52.0355 29.5387 52.0355 28.984V24.664H54.4995V30.488H62.0195V32.664H54.4995V44.824H62.0195V47H55.5875ZM67.511 23.32H70.071V33.176H70.199C70.3697 32.7707 70.583 32.3867 70.839 32.024C71.095 31.64 71.4043 31.3093 71.767 31.032C72.151 30.7547 72.599 30.5307 73.111 30.36C73.623 30.1893 74.2203 30.104 74.903 30.104C76.631 30.104 78.0177 30.6587 79.063 31.768C80.1083 32.856 80.631 34.4027 80.631 36.408V47H78.071V36.856C78.071 35.3413 77.7403 34.2213 77.079 33.496C76.4177 32.7493 75.447 32.376 74.167 32.376C73.655 32.376 73.1537 32.44 72.663 32.568C72.1723 32.696 71.735 32.888 71.351 33.144C70.967 33.4 70.6577 33.7307 70.423 34.136C70.1883 34.5413 70.071 35.0107 70.071 35.544V47H67.511V23.32ZM93.4505 47.384C92.2558 47.384 91.1785 47.1813 90.2185 46.776C89.2798 46.3707 88.4692 45.7947 87.7865 45.048C87.1252 44.28 86.6132 43.3733 86.2505 42.328C85.8878 41.2613 85.7065 40.0773 85.7065 38.776C85.7065 37.4533 85.8878 36.2587 86.2505 35.192C86.6345 34.1253 87.1572 33.2187 87.8185 32.472C88.4798 31.704 89.2692 31.1173 90.1865 30.712C91.1252 30.3067 92.1598 30.104 93.2905 30.104C94.3998 30.104 95.4025 30.3067 96.2985 30.712C97.2158 31.1173 97.9945 31.6827 98.6345 32.408C99.2745 33.112 99.7652 33.9547 100.107 34.936C100.448 35.9173 100.619 36.9947 100.619 38.168V39.384H88.3945V40.152C88.3945 40.8773 88.5118 41.5493 88.7465 42.168C88.9812 42.7867 89.3118 43.32 89.7385 43.768C90.1865 44.216 90.7198 44.568 91.3385 44.824C91.9785 45.0587 92.6825 45.176 93.4505 45.176C94.5598 45.176 95.5198 44.92 96.3305 44.408C97.1412 43.896 97.7598 43.192 98.1865 42.296L100.075 43.576C99.5838 44.6853 98.7625 45.6027 97.6105 46.328C96.4798 47.032 95.0932 47.384 93.4505 47.384ZM93.2905 32.216C92.5865 32.216 91.9358 32.344 91.3385 32.6C90.7412 32.856 90.2185 33.208 89.7705 33.656C89.3438 34.104 89.0025 34.6373 88.7465 35.256C88.5118 35.8533 88.3945 36.5147 88.3945 37.24V37.464H97.8665V37.112C97.8665 36.3867 97.7492 35.7253 97.5145 35.128C97.3012 34.5307 96.9918 34.0187 96.5865 33.592C96.2025 33.144 95.7225 32.8027 95.1465 32.568C94.5918 32.3333 93.9732 32.216 93.2905 32.216ZM105.214 44.824H110.046V32.664H105.214V30.488H112.606V34.648H112.766C113.107 33.3467 113.747 32.3333 114.686 31.608C115.646 30.8613 116.862 30.488 118.334 30.488H120.638V33.048H117.534C116.062 33.048 114.867 33.4747 113.95 34.328C113.054 35.1813 112.606 36.3013 112.606 37.688V44.824H119.006V47H105.214V44.824ZM131.538 47.384C130.172 47.384 128.999 47.128 128.018 46.616C127.036 46.0827 126.226 45.3253 125.586 44.344C124.946 43.3627 124.476 42.1573 124.178 40.728C123.879 39.2987 123.73 37.6667 123.73 35.832C123.73 34.0187 123.879 32.3973 124.178 30.968C124.476 29.5173 124.946 28.3013 125.586 27.32C126.226 26.3387 127.036 25.592 128.018 25.08C128.999 24.5467 130.172 24.28 131.538 24.28C132.903 24.28 134.076 24.5467 135.058 25.08C136.039 25.592 136.85 26.3387 137.49 27.32C138.13 28.3013 138.599 29.5173 138.898 30.968C139.196 32.3973 139.346 34.0187 139.346 35.832C139.346 37.6667 139.196 39.2987 138.898 40.728C138.599 42.1573 138.13 43.3627 137.49 44.344C136.85 45.3253 136.039 46.0827 135.058 46.616C134.076 47.128 132.903 47.384 131.538 47.384ZM131.538 45.048C132.434 45.048 133.202 44.8773 133.842 44.536C134.482 44.1733 134.994 43.672 135.378 43.032C135.783 42.392 136.082 41.624 136.274 40.728C136.466 39.8107 136.562 38.7867 136.562 37.656V34.008C136.562 32.8987 136.466 31.8853 136.274 30.968C136.082 30.0507 135.783 29.272 135.378 28.632C134.994 27.992 134.482 27.5013 133.842 27.16C133.202 26.7973 132.434 26.616 131.538 26.616C130.642 26.616 129.874 26.7973 129.234 27.16C128.594 27.5013 128.071 27.992 127.666 28.632C127.282 29.272 126.994 30.0507 126.802 30.968C126.61 31.8853 126.514 32.8987 126.514 34.008V37.656C126.514 38.7867 126.61 39.8107 126.802 40.728C126.994 41.624 127.282 42.392 127.666 43.032C128.071 43.672 128.594 44.1733 129.234 44.536C129.874 44.8773 130.642 45.048 131.538 45.048ZM131.538 37.72C130.791 37.72 130.268 37.5707 129.97 37.272C129.692 36.9733 129.554 36.6107 129.554 36.184V35.48C129.554 35.0533 129.692 34.6907 129.97 34.392C130.268 34.0933 130.791 33.944 131.538 33.944C132.284 33.944 132.796 34.0933 133.074 34.392C133.372 34.6907 133.522 35.0533 133.522 35.48V36.184C133.522 36.6107 133.372 36.9733 133.074 37.272C132.796 37.5707 132.284 37.72 131.538 37.72Z" fill="#D21616"/>
<path d="M112.667 75.9333L111.333 76.7333L110.8 76.4667" stroke="white" stroke-width="2"/>
<path d="M56.4 76.4667L55.8667 76.7333L54.5334 75.9333" stroke="white" stroke-width="2"/>
<path d="M139.067 60.7333L111.333 76.7333" stroke="white" stroke-width="2"/>
<path d="M111.333 76.7333L100 70.3333" stroke="white" stroke-width="2"/>
<path d="M100 70.3333L88.8 63.8" stroke="#FF0000" stroke-width="2"/>
<path d="M78.4 63.8L67.2 70.3333" stroke="#FF0000" stroke-width="2"/>
<path d="M67.2 70.3333L55.8667 76.7333" stroke="white" stroke-width="2"/>
<path d="M55.8667 76.7333L28.1333 60.7333" stroke="white" stroke-width="2"/>
<path d="M87.7333 60.7333C87.7333 62.1556 87.3778 63.2667 86.6667 64.0667C85.9556 64.9556 84.9333 65.4 83.6 65.4C82.2667 65.4 81.2444 64.9556 80.5333 64.0667C79.8222 63.2667 79.4667 62.1556 79.4667 60.7333C79.4667 59.3111 79.8222 58.1556 80.5333 57.2667C81.2444 56.4667 82.2667 56.0667 83.6 56.0667C84.9333 56.0667 85.9556 56.4667 86.6667 57.2667C87.3778 58.0667 87.7333 59.2222 87.7333 60.7333ZM83.6 57C82.7111 57 82 57.3111 81.4667 57.9333C80.9333 58.5556 80.6667 59.4889 80.6667 60.7333C80.6667 61.8889 80.9333 62.7778 81.4667 63.4C82 64.0222 82.7111 64.3333 83.6 64.3333C84.4889 64.3333 85.2 64.0222 85.7333 63.4C86.2667 62.7778 86.5333 61.8889 86.5333 60.7333C86.5333 59.4889 86.2667 58.5556 85.7333 57.9333C85.2 57.3111 84.4889 57 83.6 57Z" fill="#FF0000"/>
</svg>
